<?xml version="1.0" standalone="no"?>
<!DOCTYPE svg PUBLIC "-//W3C//DTD SVG 20010904//EN"
 "http://www.w3.org/TR/2001/REC-SVG-20010904/DTD/svg10.dtd">
<svg version="1.0" xmlns="http://www.w3.org/2000/svg"
 width="800.000000pt" height="864.000000pt" viewBox="0 0 800.000000 864.000000"
 preserveAspectRatio="xMidYMid meet">
<metadata>
Created by potrace 1.16, written by Peter Selinger 2001-2019
</metadata>
<g transform="translate(0.000000,864.000000) scale(0.100000,-0.100000)"
fill="#808080" stroke="none">
<path d="M3435 7139 c-545 -131 -1321 -318 -1725 -415 -444 -106 -745 -182
-760 -193 -14 -10 -31 -29 -37 -42 -10 -19 -12 -397 -10 -1771 l2 -1748 25
-24 c23 -22 2306 -1272 2416 -1323 l51 -23 794 191 c993 238 1514 363 2164
518 302 72 520 130 535 140 14 10 31 29 37 42 10 19 12 397 10 1770 -2 1701
-3 1747 -21 1768 -10 11 -204 122 -430 245 -226 123 -577 315 -781 426 -203
111 -399 218 -435 237 -109 59 -380 208 -556 304 -177 97 -263 139 -279 138
-5 -1 -455 -109 -1000 -240z m1464 -233 c1057 -576 1646 -898 1649 -901 2 -2
-39 -13 -90 -25 -51 -12 -259 -61 -463 -110 -203 -49 -532 -128 -730 -175
-479 -114 -1257 -301 -1584 -380 l-265 -63 -1058 576 c-582 318 -1058 579
-1058 582 0 3 71 22 158 43 86 20 222 53 302 72 272 65 594 143 1105 265 281
68 737 178 1015 245 278 68 516 123 529 124 14 1 220 -106 490 -253z m-2689
-1229 l1085 -593 3 -1597 c1 -1154 -1 -1597 -9 -1597 -9 0 -2096 1134 -2161
1174 -17 10 -18 98 -18 1608 0 879 3 1598 8 1598 4 -1 495 -268 1092 -593z
m4520 -1456 l0 -1609 -207 -51 c-115 -27 -296 -71 -403 -97 -385 -92 -569
-136 -1578 -378 -563 -135 -1027 -246 -1033 -246 -6 0 -8 608 -7 1611 l3 1612
100 24 c55 13 647 155 1315 315 668 160 1341 321 1495 358 154 38 288 69 298
69 16 1 17 -82 17 -1608z"/>
</g>
</svg>
